<?xml version="1.0" encoding="utf-8"?>
<!-- Generator: Adobe Illustrator 16.0.0, SVG Export Plug-In . SVG Version: 6.00 Build 0)  -->
<!DOCTYPE svg PUBLIC "-//W3C//DTD SVG 1.1//EN" "http://www.w3.org/Graphics/SVG/1.1/DTD/svg11.dtd">
<svg version="1.1" id="Layer_1" xmlns="http://www.w3.org/2000/svg" xmlns:xlink="http://www.w3.org/1999/xlink" x="0px" y="0px"
	 width="41.918px" height="35.817px" viewBox="0 0 41.918 35.817" enable-background="new 0 0 41.918 35.817" xml:space="preserve">
<polygon fill="#B92025" points="32.128,15.082 2.217,15.082 17.173,30.031 "/>
<path fill="#C5513C" d="M2.217,15.082c0,0,7.306-15.205,7.29-15.081l7.666,15.081H2.217z"/>
<polygon fill="#C5513C" points="17.173,30.031 20.589,26.618 23.833,30.031 "/>
<polygon fill="#B92025" points="23.833,30.031 17.173,30.031 17.173,35.817 "/>
<polygon fill="#C5513C" points="17.173,32.924 17.173,35.817 12.271,35.817 "/>
<polygon fill="#C5513C" points="20.503,15.082 32.128,4.902 32.128,15.082 "/>
<path fill="#B92025" d="M36.274,4.902h-4.146v10.18C33.692,11.224,36.274,4.902,36.274,4.902"/>
<polygon fill="#C5513C" points="36.274,4.902 41.553,9.992 34.201,9.992 "/>
<path fill="#B92025" d="M41.918,9.992c0,0-5.497-5.09-5.644-5.09l5.278,18.851L41.918,9.992z"/>
<polygon fill="#B92025" points="5.642,8.004 2.016,0 9.494,0 "/>
<polygon fill="#C5513C" points="4.236,4.902 0,4.902 3.011,2.188 "/>
</svg>
